<?xml version="1.0" standalone="no"?>
<!DOCTYPE svg PUBLIC "-//W3C//DTD SVG 20010904//EN"
 "http://www.w3.org/TR/2001/REC-SVG-20010904/DTD/svg10.dtd">
<svg version="1.0" xmlns="http://www.w3.org/2000/svg"
 width="1115.000000pt" height="1267.000000pt" viewBox="0 0 1115.000000 1267.000000"
 preserveAspectRatio="xMidYMid meet">

<g transform="translate(0.000000,1267.000000) scale(0.100000,-0.100000)"
fill="#000000" stroke="none">
<path d="M635 12089 c-12 -6 -26 -19 -33 -29 -9 -15 -12 -985 -12 -4218 0
-4546 -3 -4283 51 -4525 52 -235 162 -495 280 -662 199 -281 502 -481 856
-566 186 -44 252 -49 783 -59 808 -14 1134 -43 1481 -130 166 -42 274 -82 434
-160 266 -129 430 -255 763 -585 l233 -231 187 189 c345 348 547 504 827 638
147 70 231 100 400 144 349 91 674 121 1495 135 531 10 597 15 783 59 445 106
776 369 977 776 104 211 168 429 200 685 16 129 14 8484 -2 8510 -7 10 -23 23
-35 29 -32 15 -9639 14 -9668 0z m1576 -1029 c103 -10 339 -47 346 -54 5 -5
-59 -420 -67 -429 -4 -4 -51 -1 -106 8 -127 20 -355 30 -466 21 l-88 -8 0 -67
0 -67 168 -17 c386 -38 561 -135 629 -348 14 -41 18 -90 18 -204 0 -167 -10
-221 -60 -332 -78 -170 -200 -236 -490 -264 -146 -14 -442 -7 -610 16 -124 16
-254 41 -263 49 -4 5 66 438 73 444 1 2 47 -6 101 -17 164 -33 305 -44 482
-38 89 4 167 9 172 12 6 4 10 35 10 70 l0 64 -52 5 c-29 3 -104 11 -167 16
-329 31 -492 117 -561 298 -31 82 -44 229 -31 361 18 180 58 279 144 358 71
66 159 102 292 122 86 12 404 13 526 1z m7259 -13 c126 -24 160 -36 160 -55 0
-18 -71 -395 -76 -400 -1 -2 -47 3 -102 12 -115 19 -323 21 -388 5 -28 -7 -54
-23 -69 -41 l-25 -30 0 -378 0 -378 23 -7 c12 -4 85 -9 161 -12 149 -6 261 5
375 38 36 10 65 18 66 16 1 -1 11 -105 21 -230 l19 -228 -63 -19 c-117 -36
-192 -45 -382 -44 -149 0 -204 5 -284 22 -275 59 -432 212 -487 475 -53 258
-43 658 22 860 73 225 252 365 524 407 84 13 415 4 505 -13z m-5971 -55 c12
-42 135 -550 172 -705 24 -102 33 -126 45 -115 5 6 154 608 197 798 l12 55
361 3 361 2 7 -142 c11 -229 35 -659 56 -988 11 -168 22 -365 26 -437 l7 -133
-281 0 -282 0 -4 23 c-3 12 -10 184 -16 382 -11 374 -16 434 -30 419 -5 -5
-54 -192 -111 -416 l-102 -408 -207 0 -207 0 -103 403 c-56 221 -106 409 -111
417 -7 13 -8 13 -12 0 -3 -8 -10 -177 -16 -375 -7 -198 -14 -379 -17 -402 l-5
-43 -282 0 -282 0 12 198 c6 108 19 323 27 477 19 336 54 876 62 963 l6 62
353 0 354 0 10 -38z m1841 -597 l0 -635 140 0 c164 0 201 10 219 60 8 23 11
208 11 621 l0 589 271 0 270 0 -4 -627 c-3 -554 -6 -637 -21 -703 -66 -283
-230 -390 -626 -406 -243 -11 -426 17 -553 83 -116 61 -187 164 -222 323 -20
92 -33 474 -34 978 l-1 352 275 0 275 0 0 -635z m1881 215 c57 -231 106 -426
111 -432 4 -7 10 -9 14 -6 5 5 154 599 209 836 l5 22 355 0 354 0 5 -42 c3
-24 15 -203 26 -398 11 -195 25 -416 30 -490 5 -74 16 -245 25 -380 8 -135 17
-278 20 -317 l6 -73 -286 0 -285 0 -4 23 c-3 12 -10 191 -17 397 -11 352 -18
438 -33 400 -3 -8 -46 -179 -96 -380 -50 -201 -95 -382 -101 -402 l-10 -38
-209 0 c-116 0 -210 2 -210 4 0 6 -199 785 -206 810 -15 47 -22 -30 -33 -379
-6 -203 -14 -385 -17 -402 l-5 -33 -282 0 -282 0 41 678 c23 372 47 746 53
830 6 85 11 162 11 173 0 18 12 19 354 19 l354 0 103 -420z m-3484 -1911 c122
-58 223 -209 327 -489 26 -69 52 -137 58 -152 10 -26 14 -28 68 -28 32 0 76
-7 99 -15 39 -14 43 -13 108 18 62 29 76 32 168 32 92 0 104 -2 153 -29 177
-98 302 -391 307 -721 2 -96 8 -151 24 -210 76 -282 34 -572 -115 -797 -152
-229 -407 -380 -706 -418 -197 -26 -436 35 -601 154 -210 149 -408 481 -424
708 l-6 78 -116 86 c-572 428 -715 596 -715 839 0 70 5 103 23 148 30 77 120
173 198 212 53 28 67 30 163 30 l105 0 95 -47 c52 -26 148 -86 213 -133 65
-47 119 -85 121 -85 2 0 -10 44 -26 98 -100 333 -84 508 57 641 124 118 281
147 422 80z m3813 -4 c35 -18 69 -74 116 -190 58 -145 94 -185 165 -185 17 0
81 12 142 26 144 33 210 34 241 4 35 -32 39 -76 20 -225 -9 -75 -13 -150 -9
-171 11 -59 52 -90 169 -125 149 -45 204 -69 226 -97 40 -50 23 -100 -79 -234
-141 -185 -140 -198 38 -392 154 -168 139 -209 -119 -320 -175 -77 -189 -105
-145 -299 34 -151 35 -210 4 -243 -33 -35 -77 -39 -231 -20 -76 10 -148 14
-161 11 -70 -20 -98 -61 -137 -199 -56 -201 -107 -249 -208 -197 -20 10 -73
47 -117 81 -174 135 -196 134 -358 -16 -98 -91 -150 -124 -193 -124 -42 0 -95
64 -134 161 -67 170 -96 211 -158 224 -22 4 -82 -4 -183 -26 -141 -31 -153
-32 -192 -18 -36 12 -44 20 -57 56 -12 37 -12 58 3 185 27 227 17 242 -206
312 -160 51 -197 76 -197 135 0 43 19 78 107 195 128 171 127 188 -24 349
-177 190 -164 245 82 343 112 44 171 90 181 139 4 22 -5 84 -26 179 -35 157
-35 202 1 235 33 30 81 33 230 14 218 -27 239 -13 302 201 72 247 114 260 325
100 102 -79 135 -96 179 -96 42 0 67 17 175 116 84 77 155 126 185 126 8 0 27
-7 43 -15z m-4437 -3516 c21 -26 22 -67 1 -97 -13 -19 -24 -22 -86 -22 -86 0
-108 15 -108 70 0 60 37 82 125 75 36 -3 55 -11 68 -26z m1948 5 c24 -21 25
-81 2 -106 -13 -14 -31 -18 -89 -18 -64 0 -75 3 -88 22 -31 44 -11 111 37 121
40 9 119 -2 138 -19z m2420 -141 l1 -158 36 78 36 77 99 0 c115 0 112 10 41
-132 -39 -78 -43 -90 -32 -113 l12 -26 22 43 c13 25 31 45 44 48 15 4 26 20
39 58 35 103 99 138 246 136 153 -3 204 -36 213 -137 10 -122 -31 -162 -183
-180 -69 -8 -95 -15 -95 -25 0 -12 17 -13 93 -9 50 3 104 9 120 13 21 5 27 3
27 -10 0 -23 15 -20 28 7 10 19 11 16 8 -23 -11 -106 -11 -107 -80 -119 -82
-14 -214 -14 -257 1 -89 30 -128 88 -136 206 l-6 75 -32 -63 -32 -64 31 -70
c29 -67 31 -69 37 -41 5 24 7 26 8 7 1 -26 26 -78 50 -106 49 -56 178 -78 314
-54 42 8 77 11 77 7 0 -3 3 -20 6 -37 l6 -30 -72 -12 c-110 -19 -235 -10 -290
20 -46 26 -79 71 -89 123 l-7 32 -103 5 -103 5 -37 90 -36 90 -3 -45 c-2 -33
8 -70 36 -140 l38 -95 85 -3 86 -3 16 -35 c9 -19 17 -37 17 -40 0 -2 -45 -3
-101 -2 l-101 3 -35 88 -35 87 -99 0 -99 0 0 305 0 304 33 6 c17 3 55 6 82 8
28 2 56 4 63 5 9 2 12 -36 13 -155z m-5431 -103 l0 -220 55 0 c43 0 56 4 65
19 6 12 10 101 10 220 l0 201 96 0 95 0 -3 -227 c-3 -220 -4 -230 -28 -278
-39 -78 -68 -90 -225 -90 -152 0 -184 12 -225 86 -24 43 -25 51 -28 277 l-4
232 96 0 96 0 0 -220z m3280 160 l0 -60 119 0 119 0 6 -27 c3 -16 15 -82 27
-148 11 -66 22 -121 24 -123 5 -6 12 27 36 166 l22 132 94 0 c85 0 94 -2 89
-17 -2 -10 -30 -121 -61 -248 -86 -353 -87 -355 -286 -355 l-127 0 -6 26 c-4
14 -4 40 0 59 5 27 12 35 35 40 16 4 29 12 29 18 -1 23 -48 192 -49 175 -1
-13 -9 -18 -31 -18 -16 0 -30 -4 -30 -10 0 -5 12 -10 26 -10 25 0 26 -2 20
-37 -3 -21 -6 -53 -6 -72 l0 -34 -80 6 c-123 10 -160 36 -160 116 0 34 -3 41
-20 41 -17 0 -20 7 -20 40 0 33 3 40 20 40 18 0 20 7 20 60 0 53 -2 60 -20 60
-18 0 -20 7 -20 60 0 53 2 60 20 60 16 0 20 7 20 38 l0 38 83 21 c115 29 107
32 107 -37z m1039 -87 c19 -79 37 -143 41 -143 4 0 22 65 41 145 l34 145 122
0 122 0 5 -52 c3 -29 10 -143 16 -253 6 -110 13 -219 16 -243 l5 -43 -103 3
-103 3 1 70 c2 84 4 87 -44 -100 l-39 -150 -73 0 -74 0 -36 137 c-19 75 -38
139 -41 143 -4 3 -5 -19 -4 -50 l2 -55 -105 0 -104 0 6 58 c3 31 10 145 16
252 6 107 13 214 16 238 l5 43 122 -3 122 -3 34 -142z m2081 -73 l0 -221 58 3
57 3 3 218 2 217 94 0 93 0 7 -162 c15 -365 -26 -437 -249 -438 -111 0 -160
13 -201 54 -47 47 -54 87 -54 329 l0 217 95 0 95 0 0 -220z m-5665 110 c24 -5
51 -21 68 -40 l27 -30 0 -205 0 -205 -95 0 -95 0 0 66 0 65 -42 -3 -43 -3 -3
-62 -3 -63 -94 0 -95 0 0 235 0 235 47 0 c34 0 53 -6 69 -21 l22 -20 42 21
c67 34 133 45 195 30z m1222 -15 c48 -20 73 -68 73 -138 0 -65 -19 -110 -53
-129 -31 -16 -122 -40 -179 -45 -27 -3 -48 -10 -48 -15 0 -11 161 -5 211 7 23
6 27 3 34 -22 l7 -28 13 25 14 25 1 -34 c0 -19 -5 -49 -12 -67 -11 -30 -16
-33 -73 -43 -220 -39 -359 13 -381 140 -3 19 -8 41 -11 49 -3 8 -28 -73 -55
-180 -27 -107 -50 -195 -51 -196 -1 -1 -59 -4 -129 -6 l-126 -5 -56 223 c-31
123 -56 231 -56 241 0 45 21 -19 65 -194 l47 -193 127 0 127 0 43 178 c24 97
49 191 56 207 7 17 16 46 19 66 13 78 74 133 163 149 60 11 188 2 230 -15z
m399 -74 c5 -23 6 -23 22 10 35 68 145 99 290 79 114 -15 115 -16 108 -59 -16
-92 -17 -93 -39 -86 -12 3 -59 9 -104 12 -71 5 -83 4 -83 -10 0 -12 15 -17 58
-22 87 -10 127 -23 155 -49 68 -63 53 -210 -26 -253 -26 -15 -57 -18 -167 -18
-74 0 -152 4 -172 8 -38 8 -38 8 -38 59 l0 51 -32 -7 c-55 -11 -78 -32 -78
-71 l0 -35 -95 0 -95 0 0 235 0 235 47 0 c37 0 53 -6 74 -26 l27 -26 29 22
c16 11 47 27 69 35 l39 13 3 -36 c1 -21 5 -48 8 -61z m2763 67 c71 -34 81 -67
81 -280 l0 -178 -47 0 c-37 0 -53 6 -75 27 -26 25 -29 25 -46 10 -32 -29 -90
-47 -152 -47 -68 0 -108 16 -139 56 -29 37 -29 135 -1 182 11 18 17 38 14 44
-5 7 -1 9 9 5 9 -3 31 1 49 10 19 10 67 19 116 21 70 4 82 7 80 21 -4 21 -61
26 -149 11 -38 -7 -72 -12 -76 -12 -5 0 -13 29 -19 66 l-11 65 51 10 c127 25
248 21 315 -11z m1999 10 c32 -8 41 -15 38 -27 -3 -9 -8 -38 -12 -64 -6 -44
-9 -48 -28 -42 -11 3 -58 9 -103 12 -71 5 -83 4 -83 -10 0 -12 15 -17 58 -22
31 -3 77 -14 102 -23 25 -9 50 -17 55 -17 16 0 28 -55 29 -132 1 -66 -1 -74
-28 -102 -17 -17 -46 -36 -65 -41 -49 -13 -225 -13 -295 2 -51 10 -57 13 -52
32 3 12 6 45 6 74 0 49 1 52 19 42 30 -15 161 -32 204 -25 64 11 45 32 -37 38
-131 10 -186 56 -186 155 0 101 37 143 141 161 60 11 171 5 237 -11z m-6047
-35 c2 -21 2 -127 1 -235 l-4 -198 -94 0 -94 0 -2 163 c-3 182 -1 277 5 283 5
5 112 21 153 23 30 1 32 -2 35 -36z m218 -115 c13 -82 27 -148 31 -148 3 0 17
68 30 150 l24 150 93 0 c51 0 93 -3 93 -6 0 -3 -25 -109 -56 -235 l-56 -229
-128 0 -129 0 -10 38 c-25 92 -101 408 -101 420 0 10 22 12 92 10 l93 -3 24
-147z m1733 110 c2 -24 2 -130 0 -235 l-5 -193 -93 0 -94 0 -2 168 c-3 175 -1
272 4 278 5 4 123 21 159 23 24 1 27 -3 31 -41z m798 -153 c0 -3 -28 -116 -61
-252 -90 -363 -92 -366 -290 -371 l-129 -4 0 35 0 35 123 4 c200 6 207 15 288
342 29 119 57 216 61 216 5 0 8 -2 8 -5z m-3973 -328 c10 -18 38 -42 63 -54
38 -20 60 -23 155 -23 163 1 210 27 242 138 l13 47 -6 -65 c-8 -89 -34 -141
-87 -171 -38 -22 -53 -24 -162 -24 -104 0 -126 3 -161 22 -55 29 -81 84 -88
183 -4 62 -4 67 4 27 4 -26 17 -62 27 -80z m1767 -20 c18 -18 51 -38 73 -45
47 -14 211 -16 268 -2 22 5 41 7 43 5 2 -2 5 -19 5 -37 l2 -33 -65 -11 c-244
-43 -366 17 -384 191 l-6 60 15 -47 c9 -27 30 -63 49 -81z m4637 22 c54 -76
292 -92 391 -26 23 16 38 38 50 72 17 49 17 49 18 15 1 -91 -50 -168 -125
-189 -51 -14 -199 -14 -250 0 -75 21 -126 99 -124 189 l1 35 10 -35 c5 -19 18
-46 29 -61z m925 -34 c-8 -39 -51 -82 -97 -95 -46 -14 -223 -13 -293 2 -57 11
-58 11 -52 41 3 17 8 32 9 34 2 1 51 -3 109 -9 177 -20 296 11 315 80 7 27 8
27 11 3 2 -13 1 -38 -2 -56z m-4371 11 c-8 -53 -33 -89 -77 -112 -43 -22 -204
-29 -298 -12 l-75 13 3 35 c2 19 5 36 6 37 1 1 19 -2 41 -7 22 -5 94 -10 160
-10 144 0 194 17 222 74 21 45 26 40 18 -18z m1986 -27 c57 -24 147 -18 209
14 l53 28 22 -21 c16 -15 35 -20 73 -20 l52 0 0 -40 0 -40 -47 0 c-37 0 -53 6
-75 27 -26 25 -29 25 -46 10 -55 -50 -185 -63 -252 -26 -43 25 -60 54 -60 107
l0 37 19 -31 c10 -17 34 -37 52 -45z m-1615 -18 c22 -6 65 -11 97 -11 l57 0 0
-35 0 -35 -75 0 c-116 0 -165 34 -165 116 l0 23 24 -24 c13 -13 41 -28 62 -34z
m1024 -21 l0 -40 -100 0 -100 0 0 33 c0 19 3 37 7 40 3 4 48 7 100 7 l93 0 0
-40z m518 -2 l3 -38 -100 0 -101 0 0 40 0 41 98 -3 97 -3 3 -37z m712 2 l0
-40 -95 0 -95 0 0 40 0 40 95 0 95 0 0 -40z m-4880 -15 l0 -35 -95 0 -95 0 0
35 0 35 95 0 95 0 0 -35z m280 0 l0 -35 -95 0 -95 0 0 35 0 35 95 0 95 0 0
-35z m240 0 l0 -35 -95 0 -95 0 0 35 0 35 95 0 95 0 0 -35z m1180 0 l0 -35
-95 0 -95 0 0 35 0 35 95 0 95 0 0 -35z m770 0 l0 -35 -95 0 -95 0 0 35 0 35
95 0 95 0 0 -35z m-1220 -380 l0 -116 33 18 c40 21 177 29 232 14 23 -6 54
-25 70 -41 l30 -31 3 -274 3 -274 -126 -3 -125 -3 0 99 0 99 -45 -5 c-68 -8
-75 -18 -75 -109 l0 -79 -125 0 -125 0 0 399 0 399 63 6 c59 6 115 11 165 14
22 2 22 0 22 -113z m1333 -67 c4 -99 7 -245 7 -323 l0 -142 28 -6 27 -5 -5
-89 -5 -88 -95 3 c-74 1 -104 7 -140 25 -72 35 -73 44 -66 441 3 187 8 341 10
343 3 3 138 17 212 22 20 1 21 -4 27 -181z m337 -142 l0 -323 29 -6 c27 -6 28
-9 33 -72 11 -128 71 -207 184 -241 60 -18 235 -18 327 0 75 14 71 16 82 -46
l6 -36 -58 -14 c-34 -8 -119 -13 -208 -13 -145 0 -152 1 -203 28 -79 41 -129
129 -134 232 -1 39 -1 39 -5 6 l-4 -34 -96 7 c-103 7 -149 21 -182 57 -21 22
-21 28 -21 390 l0 367 63 6 c34 3 78 8 97 9 19 2 47 5 63 5 l27 2 0 -324z
m-2004 274 l51 -11 -18 -92 c-10 -51 -19 -93 -19 -93 0 -1 -51 1 -114 4 -106
4 -115 3 -135 -17 -17 -17 -21 -33 -21 -86 l0 -65 25 16 c22 14 44 16 135 12
l110 -6 6 39 c6 35 19 57 29 47 3 -3 -13 -93 -30 -165 -5 -21 -8 -22 -108 -16
-63 3 -113 1 -129 -6 -27 -10 -28 -14 -28 -76 l0 -65 88 0 c48 0 111 6 139 13
l52 14 6 -96 c4 -53 7 -100 7 -106 -1 -22 -97 -36 -222 -32 -148 4 -210 25
-265 90 -58 68 -70 119 -70 307 0 136 3 175 19 219 20 59 73 124 119 148 80
41 244 51 373 23z m3995 -226 c-30 -34 -32 -41 -26 -82 4 -26 14 -52 23 -58
15 -11 18 -7 29 34 19 73 60 123 128 157 58 29 64 30 200 30 129 0 144 -2 189
-25 73 -36 88 -64 94 -160 4 -64 1 -89 -13 -121 -32 -70 -130 -109 -275 -109
-68 0 -70 -1 -70 -25 0 -25 1 -25 78 -25 42 0 104 7 137 15 86 21 95 20 95
-11 0 -32 17 -23 36 20 l13 31 0 -55 c0 -30 -6 -66 -14 -80 -8 -14 -14 -35
-15 -46 0 -31 -57 -44 -220 -51 -108 -4 -147 -2 -191 10 -112 33 -174 120
-186 262 -4 56 -9 73 -18 65 -6 -5 -14 -7 -17 -4 -3 3 -8 -6 -12 -19 -13 -52
-104 -107 -177 -107 -30 0 -46 -25 -23 -34 9 -3 29 -6 45 -6 17 0 50 -5 75
-11 52 -13 69 -4 84 45 8 26 9 20 8 -39 0 -38 4 -87 10 -109 13 -50 1 -125
-26 -163 -12 -17 -45 -41 -74 -54 -50 -22 -64 -24 -218 -23 -105 1 -185 7
-220 16 -62 16 -59 8 -40 126 11 69 13 73 35 68 20 -5 19 -2 -10 27 -37 37
-55 90 -55 157 l1 45 14 -39 c16 -47 58 -92 97 -105 24 -9 30 -7 35 7 3 9 12
32 20 51 7 19 12 35 11 36 -2 1 -24 9 -50 19 -55 20 -103 70 -117 123 -25 89
-4 190 50 240 47 43 97 56 234 61 l129 5 51 38 50 38 64 -64 64 -64 -32 -37z
m-2782 70 c70 -20 125 -71 140 -129 6 -26 11 -136 11 -267 l0 -223 -67 3 c-59
3 -72 7 -98 32 l-30 29 -44 -29 c-57 -38 -100 -50 -186 -50 -125 0 -196 55
-209 162 -7 63 5 121 34 160 11 16 18 33 15 38 -3 5 -1 11 5 15 5 3 10 1 10
-6 0 -8 7 -7 23 3 43 28 93 41 192 47 94 6 100 7 103 29 3 21 0 22 -70 22 -68
0 -149 -10 -209 -25 -25 -6 -26 -5 -37 64 -20 119 -31 106 113 135 57 11 255
5 304 -10z m1384 -13 c66 -32 90 -80 91 -181 1 -99 -19 -135 -95 -173 -46 -23
-75 -29 -160 -35 -100 -7 -104 -8 -107 -31 l-4 -24 109 6 c59 3 129 12 156 20
43 14 47 14 47 -1 0 -10 4 -23 9 -31 7 -11 14 -5 30 25 l20 39 0 -40 c0 -22
-7 -58 -16 -80 -8 -22 -15 -50 -15 -62 0 -18 -9 -24 -52 -34 -66 -15 -249 -23
-319 -15 -81 10 -152 57 -191 126 -28 51 -31 64 -34 166 -5 144 12 208 71 271
65 68 121 84 282 80 112 -2 137 -6 178 -26z m681 9 c16 -8 39 -28 50 -43 20
-27 21 -43 24 -300 l3 -272 -126 3 -125 3 0 95 0 94 -34 0 c-19 0 -46 -4 -60
-10 -25 -9 -26 -12 -26 -97 l0 -88 -125 3 -125 3 0 305 0 304 62 0 c54 0 66
-4 90 -27 l29 -28 32 19 c65 39 138 56 222 53 45 -1 93 -9 109 -17z m-3754
-626 c25 -51 67 -89 130 -117 55 -25 248 -36 330 -18 29 6 54 10 55 9 2 -2 5
-23 6 -47 l4 -45 -45 -14 c-31 -9 -86 -12 -175 -10 -121 3 -134 5 -190 33 -66
33 -117 91 -135 153 -6 20 -13 71 -15 112 -4 65 -3 69 5 31 5 -24 19 -63 30
-87z m4525 -23 c21 -42 79 -86 137 -105 78 -25 287 -20 390 10 13 4 18 -4 24
-41 3 -25 4 -49 0 -52 -14 -15 -150 -32 -252 -33 -132 0 -194 16 -251 64 -53
46 -82 115 -88 213 l-5 78 15 -53 c8 -29 21 -65 30 -81z m-3305 -15 c0 -24 43
-68 84 -87 85 -39 250 -16 313 42 l23 23 38 -37 c35 -35 42 -37 100 -37 l62 0
0 -50 0 -50 -63 0 c-59 0 -65 2 -96 34 l-33 34 -46 -29 c-60 -38 -101 -49
-183 -49 -140 0 -201 50 -215 176 -5 42 -4 55 4 50 7 -4 12 -13 12 -20z m1087
-83 c19 -7 76 -16 128 -20 l95 -6 0 -50 0 -50 -96 6 c-103 7 -175 31 -193 65
-6 12 -11 44 -11 73 l0 52 22 -28 c12 -15 37 -34 55 -42z m-319 -4 c20 -7 76
-12 125 -13 l88 -1 -3 -50 -3 -50 -89 2 c-98 1 -167 22 -191 56 -8 12 -15 43
-15 69 l0 47 26 -24 c14 -13 42 -29 62 -36z m549 29 c-3 -7 -5 -2 -5 12 0 14
2 19 5 13 2 -7 2 -19 0 -25z m-1727 -88 l0 -50 -125 0 -125 0 0 50 0 50 125 0
125 0 0 -50z m370 0 l0 -50 -125 0 -125 0 0 50 0 50 125 0 125 0 0 -50z m2280
0 l0 -50 -125 0 -125 0 0 50 0 50 125 0 125 0 0 -50z m370 0 l0 -50 -125 0
-125 0 0 50 0 50 125 0 125 0 0 -50z m635 -47 c-13 -87 -61 -140 -149 -164
-52 -14 -354 -6 -413 11 l-43 12 6 42 c4 22 8 43 10 45 2 2 30 -2 61 -8 94
-19 260 -25 340 -11 80 13 128 39 158 87 28 45 37 41 30 -14z"/>
<path d="M3517 8576 c-114 -41 -177 -133 -177 -257 0 -88 31 -208 130 -510 55
-166 100 -306 100 -311 0 -12 -145 88 -365 252 -215 160 -252 184 -326 221
-118 59 -198 49 -286 -34 -66 -62 -87 -114 -81 -200 11 -175 130 -302 655
-697 l180 -135 0 -85 c1 -247 220 -594 445 -704 200 -98 456 -103 668 -12 349
149 532 489 465 867 -8 46 -25 116 -39 156 -21 61 -23 78 -14 110 25 91 -34
397 -104 536 -26 53 -87 118 -125 134 -18 7 -58 13 -89 13 -70 0 -145 -37
-175 -87 l-21 -34 -22 19 c-50 47 -89 62 -159 62 -37 0 -83 -7 -103 -15 -33
-14 -35 -13 -43 8 -4 12 -36 99 -70 192 -162 441 -275 571 -444 511z m145 -88
c66 -46 125 -162 236 -467 l79 -215 -23 -33 c-28 -41 -39 -106 -30 -175 6 -40
41 -167 62 -223 6 -15 -126 -95 -296 -180 -158 -79 -240 -134 -279 -187 -26
-35 -29 -36 -47 -23 -22 17 -25 13 62 74 47 33 48 34 27 44 -19 8 -32 3 -82
-32 -33 -22 -62 -41 -66 -41 -4 0 -22 12 -40 28 -18 15 -52 41 -76 57 -23 17
-61 46 -84 65 -23 19 -50 40 -60 45 -16 10 -16 13 9 49 37 55 32 61 -19 26
-39 -26 -47 -29 -65 -18 -11 7 -20 16 -20 19 0 4 23 21 50 39 40 26 48 35 39
46 -17 20 -26 18 -79 -21 -46 -34 -48 -34 -69 -18 -21 18 -21 18 29 52 54 37
57 43 37 59 -10 9 -26 3 -65 -23 -57 -39 -65 -41 -81 -21 -9 11 -2 21 39 51
53 39 58 46 37 63 -10 9 -27 1 -70 -29 -47 -34 -60 -39 -72 -29 -23 19 -19 24
40 65 44 30 53 40 44 51 -17 21 -29 18 -83 -21 -46 -33 -51 -34 -67 -19 -18
16 -16 19 37 56 45 32 53 42 43 54 -16 20 -25 18 -76 -18 -43 -29 -47 -30 -59
-13 -12 16 -8 22 34 51 26 19 45 37 44 42 -16 35 -19 35 -65 4 -45 -31 -45
-31 -51 -9 -6 21 11 43 52 66 12 7 12 11 1 29 -10 16 -17 19 -32 10 -19 -10
-19 -9 -1 22 28 49 90 90 134 90 84 0 139 -33 495 -291 426 -310 442 -318 438
-227 -3 45 -1 48 46 82 37 28 48 41 44 56 -3 11 -8 20 -10 20 -3 0 -27 -16
-54 -36 l-49 -36 -9 24 c-8 19 -5 26 16 43 69 53 76 61 67 78 -8 14 -15 13
-57 -15 -51 -33 -51 -33 -61 -2 -5 18 1 27 39 50 42 27 57 55 36 69 -5 3 -26
-11 -47 -30 -21 -20 -40 -32 -44 -28 -4 4 -31 82 -59 173 -29 91 -59 184 -67
207 -14 39 -14 44 6 82 11 23 16 41 11 41 -5 0 -13 -4 -16 -10 -12 -20 -35
-10 -35 15 0 19 12 34 45 57 32 23 45 39 45 56 0 27 7 29 -71 -21 -14 -10 -29
-14 -32 -10 -18 18 -3 46 43 79 30 21 50 44 50 55 0 25 -15 24 -52 -2 -38 -28
-44 -20 -16 22 14 20 46 46 78 62 61 30 94 29 142 -5z m966 -658 c45 -28 88
-99 121 -205 64 -203 78 -374 34 -433 -34 -45 -81 -72 -116 -66 -59 11 -81 35
-95 105 -18 85 -31 138 -43 174 -6 17 -13 38 -16 47 -3 11 8 26 36 45 26 18
40 36 41 51 0 28 -2 28 -52 -9 -39 -27 -43 -28 -49 -12 -13 31 -10 37 31 66
39 28 50 50 30 62 -5 3 -26 -6 -46 -21 -35 -27 -37 -27 -50 -9 -19 26 -19 27
31 58 39 25 43 31 34 49 -9 17 -13 18 -32 5 -54 -35 -67 -41 -73 -35 -13 14 6
54 36 73 16 11 30 28 30 38 0 38 95 49 148 17z m-389 -34 c66 -35 131 -144
191 -326 72 -217 90 -377 51 -450 -32 -61 -134 -100 -181 -70 -12 7 -8 15 23
43 20 19 37 42 37 51 0 22 -5 21 -55 -14 -24 -16 -46 -30 -49 -30 -17 0 46 98
73 113 22 13 31 26 31 44 0 25 -1 25 -25 9 -25 -16 -25 -16 -25 16 0 22 7 37
20 46 12 7 20 23 20 38 0 25 -1 26 -24 11 -23 -16 -24 -15 -31 11 -5 21 -2 30
14 41 12 7 21 24 21 37 0 28 -7 30 -32 7 -14 -13 -23 -15 -35 -7 -28 18 -25
31 11 53 25 16 33 27 29 41 -7 26 -10 26 -70 -15 -39 -26 -63 -35 -95 -35
l-42 0 87 61 c48 33 87 63 87 67 0 4 -4 13 -9 21 -10 16 -8 17 -118 -61 -72
-51 -103 -67 -103 -54 0 2 -3 11 -6 19 -3 10 25 36 90 82 53 38 96 71 96 74 0
3 -5 13 -10 21 -7 12 -25 4 -99 -48 -49 -34 -93 -62 -96 -62 -4 0 -5 12 -3 27
2 21 20 39 74 78 80 56 86 63 63 78 -13 8 -31 0 -83 -36 l-66 -46 0 29 c0 23
9 36 45 61 32 23 44 38 40 50 -11 34 101 52 154 25z m-58 -466 c57 -31 71
-156 26 -253 -34 -76 -129 -174 -234 -243 -105 -69 -108 -94 -13 -108 93 -14
192 -82 241 -165 31 -50 48 -63 70 -50 11 5 19 16 19 25 0 23 -40 96 -62 114
-12 9 -21 29 -22 47 -1 26 -3 28 -18 19 -13 -8 -22 -6 -37 8 -20 18 -20 19 49
68 39 26 70 55 70 63 0 12 15 15 68 15 110 0 193 58 222 158 14 45 20 48 69
31 39 -14 110 2 154 33 36 26 40 21 64 -82 37 -163 16 -366 -53 -503 -43 -84
-59 -101 -165 -177 -55 -39 -105 -82 -111 -95 -10 -23 -63 -53 -168 -97 -50
-21 -70 -23 -210 -22 -89 1 -167 6 -183 12 -27 11 -27 12 -12 41 22 43 19 45
-20 16 -27 -21 -41 -25 -65 -20 -16 4 -30 10 -30 13 1 4 39 34 85 66 99 69
113 82 97 98 -7 7 -41 -10 -115 -61 -107 -73 -127 -81 -146 -58 -8 11 8 26 75
72 82 57 85 60 60 68 -22 7 -37 1 -102 -44 -59 -41 -79 -50 -92 -43 -28 18
-23 28 38 69 33 22 60 43 60 47 0 4 -9 9 -19 13 -13 4 -38 -6 -75 -31 -46 -30
-58 -35 -71 -24 -23 19 -19 26 29 56 34 22 42 31 34 41 -15 19 -29 16 -69 -11
-27 -19 -39 -22 -48 -13 -18 18 -13 34 19 54 30 19 30 20 12 36 -18 16 -20 16
-46 -4 -23 -18 -30 -20 -37 -8 -13 21 -11 37 8 48 14 7 15 12 4 25 -7 8 -23
14 -34 13 -18 -2 -22 3 -22 26 -1 15 -8 36 -17 47 -24 27 -38 86 -38 161 0 54
5 72 28 110 44 69 92 104 245 180 78 39 183 96 232 127 93 58 187 101 218 102
10 0 27 -5 38 -10z m63 -429 c17 -19 15 -21 -71 -79 -80 -54 -91 -59 -112 -48
-22 12 -20 15 65 79 49 36 92 66 95 66 3 1 14 -8 23 -18z"/>
<path d="M3350 7139 c-11 -19 -10 -20 10 -9 11 6 18 15 15 21 -9 13 -13 11
-25 -12z"/>
<path d="M7124 8308 c-59 -44 -104 -93 -104 -113 0 -32 28 -65 56 -65 13 0 24
-4 24 -10 0 -5 -11 -10 -24 -10 -35 0 -58 -27 -54 -64 2 -24 10 -34 35 -46 40
-18 46 -57 11 -64 -168 -33 -247 -64 -361 -140 l-85 -57 -89 3 c-71 2 -95 -1
-115 -14 -51 -33 -45 -116 14 -191 l29 -37 -29 -78 c-35 -89 -42 -133 -25
-139 13 -5 16 1 59 112 70 183 211 348 360 423 124 62 187 76 344 76 154 -1
243 -20 367 -78 147 -70 278 -185 344 -301 35 -63 51 -74 142 -104 62 -21 97
-42 97 -59 0 -23 -45 -72 -82 -91 -73 -35 -125 -24 -159 34 -35 59 -76 37 -44
-25 17 -33 81 -69 122 -70 18 0 23 -7 28 -43 4 -23 2 -76 -4 -117 -7 -56 -7
-76 2 -82 6 -4 16 -3 21 2 13 13 25 94 25 176 1 70 1 70 35 87 43 20 85 75 92
119 9 52 -21 81 -116 113 l-80 27 -50 77 c-56 87 -146 179 -232 236 -32 21
-58 39 -58 40 0 1 14 2 32 2 34 0 68 32 68 65 0 10 -11 29 -25 42 l-25 23 25
-4 c17 -4 31 2 47 20 25 26 58 117 58 156 0 35 -41 67 -119 92 -66 21 -75 22
-98 9 -30 -17 -57 -64 -74 -132 -12 -42 -11 -49 6 -68 18 -19 18 -20 -1 -20
-60 0 -89 -81 -41 -115 20 -15 20 -16 2 -11 -54 14 -155 36 -198 41 -58 8 -61
31 -7 49 31 10 35 16 38 48 2 28 -2 40 -20 52 -12 9 -30 16 -40 16 -10 0 -18
5 -18 10 0 6 13 10 28 10 33 0 62 27 62 57 0 19 -78 126 -105 145 -20 14 -62
8 -91 -14z m92 -50 c63 -69 68 -78 56 -90 -9 -9 -16 -7 -30 5 -38 34 -57 9
-50 -69 3 -36 6 -39 38 -44 51 -7 54 -38 3 -42 -35 -3 -38 -6 -43 -38 -4 -30
-9 -35 -34 -38 -27 -3 -28 -2 -22 30 7 42 -1 55 -39 60 -43 5 -40 32 5 36 43
4 50 14 50 75 0 55 -19 70 -50 42 -18 -16 -20 -17 -26 -1 -4 9 -5 18 -3 19 2
1 25 21 51 45 26 23 51 42 56 42 4 0 21 -15 38 -32z m488 -87 c52 -22 53 -29
28 -106 -17 -49 -18 -50 -54 -47 -32 3 -39 0 -53 -27 -18 -36 -8 -65 25 -76
34 -11 23 -28 -14 -21 -28 5 -37 3 -49 -15 -20 -28 -42 -19 -42 17 0 20 -7 32
-22 39 -37 16 -29 37 12 29 32 -6 35 -4 52 31 l18 37 -28 22 c-33 26 -33 29
-5 96 21 50 23 52 54 47 18 -3 53 -15 78 -26z m-1128 -493 c-8 -13 -30 -46
-48 -75 -18 -29 -38 -53 -44 -53 -15 0 -54 73 -54 102 0 38 18 48 93 48 l69 0
-16 -22z"/>
<path d="M7600 8125 c-14 -42 -8 -53 38 -72 34 -14 37 -14 54 7 27 33 23 74
-7 88 -48 22 -72 15 -85 -23z"/>
<path d="M6952 7248 c-33 -33 16 -91 57 -68 39 20 21 80 -24 80 -12 0 -26 -5
-33 -12z"/>
<path d="M6365 7226 c-48 -48 -70 -112 -70 -206 0 -102 24 -159 106 -255 108
-126 371 -256 637 -315 128 -29 349 -44 452 -31 74 10 89 15 115 41 l30 30
-35 -7 c-67 -15 -389 -8 -482 10 -267 53 -549 181 -671 303 -72 74 -102 142
-102 234 0 74 9 103 53 172 13 21 14 30 5 39 -9 9 -18 5 -38 -15z"/>
<path d="M7206 7207 c-12 -9 -17 -23 -14 -42 3 -27 7 -30 38 -30 31 0 35 3 38
28 6 48 -26 70 -62 44z"/>
<path d="M7069 7199 c-1 -8 0 -26 1 -40 1 -23 -2 -26 -23 -22 -28 6 -42 -17
-24 -41 8 -10 33 -16 77 -18 55 -3 65 -1 68 15 2 12 -3 20 -17 24 -22 6 -28
27 -11 38 17 11 11 45 -7 45 -10 0 -28 3 -40 6 -16 4 -23 2 -24 -7z"/>
<path d="M7961 6913 c1 -10 4 -29 8 -43 l7 -25 18 27 c10 16 16 35 12 43 -8
21 -46 19 -45 -2z"/>
<path d="M7976 4904 c-10 -9 -16 -26 -14 -38 2 -16 11 -22 39 -24 42 -4 72 19
67 52 -4 28 -67 35 -92 10z"/>
<path d="M5401 4938 c-1 -14 -10 -18 -36 -18 l-35 0 0 -60 0 -60 34 0 c24 0
36 5 38 17 2 9 18 -46 37 -121 l34 -138 30 6 c36 7 77 32 77 46 0 6 -22 10
-48 10 l-48 0 -41 168 c-23 92 -42 159 -42 150z"/>
<path d="M6262 4805 c0 -27 16 -113 36 -190 l37 -140 74 0 74 0 39 150 c22 85
37 167 36 190 -3 33 -9 15 -39 -100 l-35 -140 -74 0 -74 0 -37 140 c-33 123
-38 134 -37 90z"/>
<path d="M6251 4724 c0 -11 3 -14 6 -6 3 7 2 16 -1 19 -3 4 -6 -2 -5 -13z"/>
<path d="M2613 4893 c-9 -3 -13 -26 -13 -65 0 -51 2 -59 16 -54 9 3 29 6 45 6
29 0 29 0 29 60 l0 60 -32 -1 c-18 0 -39 -3 -45 -6z"/>
<path d="M3822 4912 c-7 -5 -14 -22 -15 -38 -2 -27 1 -29 34 -32 43 -4 69 17
69 54 0 21 -4 24 -37 24 -21 0 -44 -4 -51 -8z"/>
<path d="M4360 4868 c-54 -15 -60 -25 -60 -89 l0 -60 30 16 c40 21 77 19 84
-3 4 -10 12 -19 19 -19 6 0 49 -6 94 -12 87 -13 156 -7 150 13 -2 6 -38 14
-80 18 -110 10 -159 41 -177 110 -6 21 -14 38 -18 37 -4 0 -23 -5 -42 -11z"/>
<path d="M6967 4763 c-4 -3 -7 -22 -7 -41 l0 -34 43 7 c46 8 57 18 57 53 0 19
-5 22 -43 22 -24 0 -47 -3 -50 -7z"/>
<path d="M3880 3753 c-25 -10 -30 -25 -30 -98 0 -44 4 -65 9 -56 5 7 32 16 60
19 l51 5 0 68 0 69 -37 -1 c-21 0 -45 -3 -53 -6z"/>
<path d="M7160 3793 c-27 -10 -40 -36 -40 -80 l0 -43 58 6 c31 4 60 12 65 18
4 6 6 31 5 56 -3 44 -4 45 -38 47 -19 1 -42 -1 -50 -4z"/>
<path d="M7808 3769 c-12 -7 -18 -22 -18 -49 l0 -40 46 0 c66 0 84 13 84 60
l0 40 -47 0 c-27 0 -56 -5 -65 -11z"/>
<path d="M7055 3351 c-3 -12 -3 -25 0 -31 3 -5 46 -10 96 -10 80 0 89 2 89 19
0 15 -11 19 -74 24 -40 4 -80 9 -89 12 -10 4 -17 -1 -22 -14z"/>
<path d="M4510 3570 c-11 -11 -20 -33 -20 -50 0 -30 1 -30 54 -30 65 0 86 16
86 66 l0 34 -50 0 c-37 0 -55 -5 -70 -20z"/>
<path d="M5856 3764 c-9 -8 -16 -31 -16 -50 l0 -34 50 0 c59 0 90 24 90 70 0
30 -1 30 -54 30 -36 0 -60 -5 -70 -16z"/>
<path d="M6523 3750 c-21 -8 -23 -16 -23 -79 l0 -71 26 10 c14 6 41 10 60 10
l34 0 0 70 0 70 -37 -1 c-21 0 -48 -4 -60 -9z"/>
</g>
</svg>
