<svg width="161" height="23" viewBox="0 0 161 23" fill="none" xmlns="http://www.w3.org/2000/svg">
<g clip-path="url(#clip0_105_1530)">
<path d="M72.6797 9.55469H88.7137V13.3835H72.6797V9.55469Z" fill="#006AFF"/>
<path d="M72.6797 0.466797H88.7137V4.51409H72.6797V0.466797Z" fill="#006AFF"/>
<path d="M72.6797 18.4863H88.7137V22.5336H72.6797V18.4863Z" fill="#006AFF"/>
<path d="M36.4334 17.4979H27.4496L25.6094 22.5397H21.0547L29.5394 0.466797H34.5304L42.9523 22.5349H38.2736L36.4334 17.4979ZM28.8841 13.5711H35.0021L31.9431 5.22908L28.8841 13.5711Z" fill="#006AFF"/>
<path d="M61.0403 0.466797H65.595L57.384 22.5349H52.9662L44.7891 0.466797H49.4983L55.2701 16.8697L61.0403 0.466797Z" fill="#006AFF"/>
<path d="M107.073 4.54462V22.5397H102.737V4.54462H95.75V0.466797H114.061V4.54462H107.073Z" fill="#006AFF"/>
<path d="M131.026 17.4979H122.035L120.195 22.5397H115.648L124.128 0.466797H129.119L137.543 22.5349H132.866L131.026 17.4979ZM123.484 13.5711H129.602L126.543 5.22908L123.484 13.5711Z" fill="#006AFF"/>
<path d="M12.5953 6.90884C12.378 5.69577 11.3798 3.79665 8.5703 3.79665C6.47729 3.79665 5.10718 5.13503 5.10718 6.59874C5.10718 7.81181 5.88803 8.77744 7.50931 9.08753L10.5973 9.6788C14.6223 10.4581 16.7733 13.0722 16.7733 16.1844C16.7733 19.5761 13.9348 23 8.78926 23C2.92401 23 0.335119 19.2339 -0.0078125 16.0912L3.985 15.0323C4.17176 17.211 5.70127 19.1728 8.81502 19.1728C11.1238 19.1728 12.4021 18.0208 12.4021 16.4639C12.4021 15.1882 11.4361 14.192 9.71985 13.8498L6.63829 13.228C3.11399 12.5114 0.842271 10.2395 0.842271 6.90884C0.842271 2.98847 4.36657 0 8.54776 0C13.9123 0 15.9715 3.23591 16.4706 5.7263L12.5953 6.90884Z" fill="#006AFF"/>
<path d="M154.704 12.9883L152.18 16.7624L155.789 22.5321H160.999L154.704 12.9883Z" fill="#006AFF"/>
<path d="M160.972 0.466797H158.861H155.949L150.982 7.88014L146.372 0.466797H141.195L148.432 11.4856L141.164 22.5349H146.216L153.735 11.5161L160.972 0.466797Z" fill="#006AFF"/>
</g>
<defs>
<clipPath id="clip0_105_1530">
<rect width="161" height="23" fill="white"/>
</clipPath>
</defs>
</svg>
